<svg xmlns="http://www.w3.org/2000/svg" width="814" height="650" viewBox="0 0 814 650" version="1.1"><path d="M 471 87.016 C 503.267 87.749, 508.239 88.195, 527.489 92.080 C 551.904 97.008, 586.375 111.403, 608 125.701 C 659.151 159.522, 694.968 209.315, 710 267.500 C 714.274 284.047, 715.151 285.305, 711.903 270.233 C 707.851 251.430, 696.626 224.061, 684.553 203.546 C 671.527 181.413, 648.429 154.894, 628 138.618 C 596.292 113.356, 557.283 95.770, 517.557 88.828 C 507.149 87.010, 500.918 86.691, 472 86.500 L 438.500 86.279 471 87.016 M 420.776 88.980 C 400.046 93.351, 379.835 102.498, 363.604 114.853 C 355.779 120.810, 345.148 130.811, 343.874 133.414 C 343.313 134.561, 344.465 133.628, 346.435 131.341 C 353.190 123.493, 369.888 110.943, 383.421 103.541 C 396.236 96.531, 416.480 90.123, 432.333 88.057 C 437.935 87.327, 438.088 87.248, 434 87.197 C 431.525 87.166, 425.574 87.968, 420.776 88.980 M 340.666 139.675 C 336.922 152.902, 342.053 165.607, 353.517 171.500 L 359.354 174.500 414.927 175 L 470.500 175.500 474.200 177.800 C 477.900 180.101, 481.391 184.722, 483.759 190.453 L 485.018 193.500 484.467 190.500 C 483.656 186.087, 479.041 179.942, 473.961 176.512 L 469.500 173.500 415.500 173.295 C 385.800 173.182, 360.091 172.834, 358.368 172.521 C 354.177 171.762, 347.610 166.881, 344.558 162.258 C 341.096 157.014, 339.575 149.231, 340.847 143.267 C 341.832 138.650, 341.700 136.023, 340.666 139.675 M 143.500 166.929 C 136.250 168.678, 129.797 173.760, 126.549 180.278 C 125.147 183.091, 124.015 186.317, 124.033 187.446 C 124.051 188.576, 124.915 187.025, 125.954 184 C 129.618 173.331, 141.791 165.857, 152.847 167.489 C 158.930 168.386, 166.590 172.596, 169.802 176.807 C 171.211 178.654, 173.167 182.490, 174.149 185.332 C 175.131 188.175, 175.945 189.600, 175.958 188.500 C 176.001 184.692, 171.258 176.377, 166.930 172.672 C 160.442 167.119, 151.646 164.963, 143.500 166.929 M 200.457 167.863 C 192.346 172.809, 188.397 182.372, 189.261 194.977 C 190.112 207.387, 196.252 217.037, 204.229 218.502 C 206.028 218.833, 222.611 218.967, 241.079 218.802 L 274.659 218.500 278.227 215.777 C 288.473 207.959, 290.789 186.259, 282.654 174.303 C 276.952 165.924, 277.359 165.999, 238.016 166.004 C 206.160 166.007, 203.266 166.150, 200.457 167.863 M 201.450 168.407 C 197.605 170.082, 193.566 174.836, 191.836 179.725 C 191.063 181.910, 190.520 187.501, 190.547 193 C 190.603 204.148, 192.944 210.329, 198.805 214.802 L 202.341 217.500 237.470 217.786 L 272.598 218.072 276.025 215.762 C 290.790 205.812, 289.653 174.921, 274.282 168.371 C 269.699 166.418, 205.944 166.449, 201.450 168.407 M 550.034 173.028 C 558.337 174, 562.717 175.846, 567.962 180.585 C 574.759 186.726, 576.484 190.971, 576.493 201.578 C 576.499 209.941, 576.262 211.042, 573.479 215.544 C 569.600 221.817, 563.352 226.551, 556.212 228.627 C 542.674 232.562, 527.413 224.482, 522.326 210.684 C 521.680 208.933, 521.118 208.077, 521.076 208.782 C 520.774 213.874, 528.788 223.801, 536.437 227.809 C 540.641 230.012, 542.772 230.455, 549 230.420 C 557.953 230.370, 564.498 227.512, 570.257 221.137 C 575.784 215.020, 577.287 211.351, 577.798 202.734 C 578.224 195.552, 578.020 194.483, 575.084 188.520 C 573.295 184.885, 570.293 180.738, 568.205 179.015 C 563.119 174.821, 555.052 171.972, 548.712 172.131 L 543.500 172.263 550.034 173.028 M 537.044 174.577 C 535.144 175.402, 532.099 177.213, 530.279 178.601 C 526.928 181.157, 521.027 190.290, 521.009 192.946 C 521.004 193.742, 522.115 192.156, 523.477 189.422 C 526.739 182.876, 532.483 177.395, 538.572 175.018 C 541.282 173.959, 542.825 173.090, 542 173.086 C 541.175 173.082, 538.945 173.753, 537.044 174.577 M 174.694 197.931 C 172.509 208.389, 161.068 217.806, 150.365 217.956 C 140.213 218.098, 128.526 209.784, 125.632 200.360 C 124.811 197.687, 124.118 196.400, 124.092 197.500 C 124.005 201.137, 127.631 207.439, 132.254 211.683 C 136.809 215.865, 144.412 219, 150 219 C 155.263 219, 162.746 215.976, 167.215 212.042 C 171.798 208.008, 176.442 199.390, 175.765 196.177 C 175.569 195.249, 175.091 196.032, 174.694 197.931 M 520.300 201 C 520.300 204.025, 520.487 205.262, 520.716 203.750 C 520.945 202.238, 520.945 199.762, 520.716 198.250 C 520.487 196.738, 520.300 197.975, 520.300 201 M 483.580 212.537 C 482.550 216.643, 478.435 222.554, 474.805 225.143 L 471.500 227.500 386 228 L 300.500 228.500 294.782 231.180 C 287.744 234.479, 279.703 241.850, 275.887 248.500 C 274.310 251.250, 273.023 253.950, 273.027 254.500 C 273.032 255.050, 274.398 253.025, 276.063 250 C 280.166 242.543, 286.312 236.503, 293.410 232.955 L 299.319 230 382.410 229.994 C 438.359 229.991, 466.759 229.639, 469.355 228.919 C 474.546 227.477, 481.502 220.872, 483.592 215.399 C 484.525 212.955, 485.053 210.719, 484.764 210.431 C 484.476 210.143, 483.943 211.090, 483.580 212.537 M 271.349 268 C 271.349 272.675, 271.522 274.587, 271.732 272.250 C 271.943 269.913, 271.943 266.087, 271.732 263.750 C 271.522 261.413, 271.349 263.325, 271.349 268 M 714.331 286.500 C 717.139 304.950, 718.103 329.665, 716.826 350.500 C 716.290 359.247, 716.361 360.476, 717.173 356.500 C 718.968 347.712, 718.624 309.052, 716.631 295.516 C 715.660 288.925, 714.609 283.300, 714.294 283.016 C 713.979 282.732, 713.996 284.300, 714.331 286.500 M 275 286.348 C 275 288.195, 282.323 298.009, 285.521 300.448 C 289.906 303.793, 298.895 307.998, 301.500 307.923 C 302.600 307.892, 301.604 307.274, 299.286 306.549 C 290.454 303.789, 283.428 298.262, 277.637 289.518 C 276.187 287.328, 275 285.901, 275 286.348 M 308.280 307.736 C 310.909 307.943, 314.959 307.940, 317.280 307.731 C 319.601 307.521, 317.450 307.352, 312.500 307.355 C 307.550 307.358, 305.651 307.530, 308.280 307.736 M 330.287 307.740 C 333.469 307.939, 338.419 307.937, 341.287 307.736 C 344.154 307.535, 341.550 307.372, 335.500 307.374 C 329.450 307.376, 327.104 307.541, 330.287 307.740 M 353.287 307.740 C 356.469 307.939, 361.419 307.937, 364.287 307.736 C 367.154 307.535, 364.550 307.372, 358.500 307.374 C 352.450 307.376, 350.104 307.541, 353.287 307.740 M 486.314 307.749 C 495.561 307.914, 510.411 307.913, 519.314 307.748 C 528.216 307.582, 520.650 307.447, 502.500 307.448 C 484.350 307.448, 477.066 307.583, 486.314 307.749 M 548.807 307.747 C 555.576 307.921, 566.376 307.920, 572.807 307.746 C 579.238 307.572, 573.700 307.431, 560.500 307.431 C 547.300 307.432, 542.038 307.574, 548.807 307.747 M 649.355 308.447 C 645.856 309.969, 638.414 316.358, 636.947 319.099 C 636.425 320.074, 638.362 318.520, 641.249 315.646 C 644.817 312.096, 648.102 309.894, 651.500 308.773 C 654.250 307.866, 655.600 307.113, 654.500 307.101 C 653.400 307.088, 651.085 307.694, 649.355 308.447 M 670.091 308.554 C 675.710 310.284, 683.340 316.815, 686.234 322.372 C 687.626 325.044, 688.615 329.322, 689.037 334.500 L 689.690 342.500 689.845 335.410 C 689.978 329.321, 689.568 327.455, 686.940 322.196 C 682.881 314.074, 673.465 306.828, 667.282 307.070 C 666.302 307.108, 667.566 307.776, 670.091 308.554 M 378.006 308.934 C 385.566 311.234, 390.540 315.935, 393.512 323.591 C 394.722 326.707, 394.913 326.892, 394.454 324.500 C 393.113 317.512, 383.542 307.906, 378.100 308.086 L 375.500 308.172 378.006 308.934 M 588.500 308.929 C 598.766 311.406, 606 322.390, 606 335.500 C 606 346.828, 599.411 358.282, 591.226 361.180 C 588.290 362.220, 574.041 362.500, 524 362.500 C 452.621 362.500, 457.598 363.022, 450.563 354.803 C 445.742 349.171, 443.623 341.743, 444.221 332.579 C 444.759 324.349, 447.195 318.871, 452.742 313.417 C 455.078 311.120, 455.664 310.158, 454.291 310.874 C 448.170 314.067, 443.052 324.853, 443.022 334.624 C 442.986 346.369, 447.725 355.990, 455.922 360.808 L 460.500 363.500 525 363.500 C 597.791 363.500, 592.218 364.104, 599.890 355.387 C 611.441 342.265, 608.495 319.002, 594.175 310.255 C 592.154 309.020, 589.375 308.054, 588 308.107 C 585.714 308.196, 585.757 308.267, 588.500 308.929 M 121.332 309.905 C 107.484 313.440, 99.084 326.833, 101.905 340.880 C 103.945 351.038, 111.208 358.651, 121.129 361.031 C 137.771 365.023, 152.543 354.117, 153.773 336.928 C 154.141 331.791, 153.809 329.357, 152.267 325.870 C 149.593 319.826, 144.787 314.559, 139.706 312.103 C 134.900 309.781, 125.994 308.715, 121.332 309.905 M 217.186 309.940 L 252.872 310.500 256.062 313.500 C 257.817 315.150, 260.317 318.750, 261.617 321.500 C 262.917 324.250, 263.981 325.825, 263.981 325 C 263.982 322.385, 258.257 313.401, 255.323 311.413 C 252.679 309.621, 250.252 309.496, 217 309.440 L 181.500 309.379 217.186 309.940 M 121.500 310.893 C 107.935 314.384, 100.084 327.455, 103.030 341.645 C 104.054 346.579, 105.009 348.168, 109.860 353.013 C 117.642 360.784, 125.054 362.658, 135.612 359.523 C 141.968 357.635, 149.283 350.553, 151.453 344.185 C 154.303 335.820, 152.830 326.400, 147.601 319.543 C 142.691 313.106, 129.670 308.791, 121.500 310.893 M 176.309 312.078 C 173.158 314.096, 167.932 322.893, 168.070 325.946 C 168.109 326.801, 168.767 325.793, 169.533 323.707 C 171.451 318.480, 174.695 314.157, 178.389 311.905 C 180.100 310.861, 181.050 310.013, 180.500 310.021 C 179.950 310.028, 178.064 310.953, 176.309 312.078 M 395.336 335 C 395.336 339.125, 395.513 340.813, 395.728 338.750 C 395.944 336.688, 395.944 333.313, 395.728 331.250 C 395.513 329.188, 395.336 330.875, 395.336 335 M 632.300 335 C 632.300 338.025, 632.487 339.262, 632.716 337.750 C 632.945 336.238, 632.945 333.762, 632.716 332.250 C 632.487 330.738, 632.300 331.975, 632.300 335 M 633.086 342.283 C 632.912 345.895, 638.049 353.992, 642.994 357.901 C 649.319 362.900, 653.858 364.451, 662 364.393 C 669.507 364.339, 676.440 361.356, 681.886 355.836 C 685.286 352.389, 689.017 346.053, 688.978 343.790 C 688.966 343.080, 688.125 344.329, 687.110 346.565 C 684.420 352.486, 679.394 357.761, 673.590 360.752 C 666.954 364.172, 656.772 364.422, 650 361.332 C 642.631 357.969, 636.283 350.728, 633.934 343.006 C 633.425 341.332, 633.143 341.092, 633.086 342.283 M 168.553 346.500 C 169.581 351.786, 173.848 357.882, 178.003 360.002 C 181.694 361.884, 183.903 362, 216.226 362 C 255.878 362, 255.180 362.142, 260.750 352.951 C 262.538 350.002, 263.982 346.894, 263.961 346.044 C 263.939 345.195, 263.247 346.055, 262.423 347.956 C 260.245 352.977, 256.322 357.782, 252.998 359.501 C 248.698 361.724, 183.302 361.724, 179.002 359.501 C 175.471 357.675, 171.528 352.663, 169.488 347.409 C 168.285 344.311, 168.091 344.122, 168.553 346.500 M 393.120 347.544 C 392.387 349.571, 390.182 353.007, 388.219 355.179 C 381.416 362.709, 383.112 362.442, 338.500 363 L 298.500 363.500 293.900 366.204 C 284.375 371.804, 273.929 386.299, 274.021 393.788 C 274.033 394.729, 275.102 392.498, 276.397 388.829 C 279.162 380.996, 281.220 377.895, 287.494 372.112 C 296.353 363.946, 295.720 364.050, 337 363.998 C 357.075 363.973, 375.267 363.543, 377.426 363.042 C 379.586 362.541, 383.139 360.864, 385.323 359.316 C 389.248 356.532, 395.514 347.043, 394.815 344.944 C 394.616 344.347, 393.853 345.517, 393.120 347.544 M 714.583 367.083 C 714.208 369.916, 714.101 372.435, 714.347 372.681 C 714.593 372.927, 715.112 370.820, 715.500 368 C 715.888 365.180, 715.994 362.661, 715.736 362.403 C 715.478 362.144, 714.959 364.251, 714.583 367.083 M 710.099 387.255 C 697.076 437.974, 668.247 482.533, 627.290 515.250 C 583.405 550.305, 531.808 568.260, 475 568.245 C 441.426 568.235, 408.617 561.129, 376.825 546.981 C 361.358 540.098, 342.335 528.598, 339.952 524.689 C 338.810 522.816, 338.006 522.166, 338.004 523.114 C 337.998 525.673, 342.481 529.498, 352.347 535.352 C 414.116 572.003, 487.401 579.589, 555.317 556.361 C 589.832 544.557, 625.789 521.715, 650.524 495.881 C 675.765 469.518, 692.792 441.993, 705.197 407.500 C 709.170 396.452, 714.400 376.695, 713.814 374.946 C 713.641 374.431, 711.970 379.970, 710.099 387.255 M 276.009 413.649 C 275.992 415.799, 283.485 425.854, 287.500 429.069 C 289.700 430.830, 293.975 433.448, 297 434.886 L 302.500 437.500 363.075 438 L 423.649 438.500 427.701 441.183 C 431.962 444.003, 435.457 448.831, 437.619 454.882 C 438.330 456.872, 438.932 457.767, 438.956 456.872 C 439.031 454.091, 436.147 448.237, 432.854 444.486 C 426.406 437.142, 430.265 437.556, 363 437 L 302.500 436.500 296.825 433.840 C 289.739 430.518, 282.655 424.069, 278.898 417.520 C 277.315 414.759, 276.015 413.017, 276.009 413.649 M 598.056 437.544 C 585.061 441.159, 577.020 451.845, 577.020 465.500 C 577.020 477.290, 583.063 486.870, 593.828 492.141 C 600.780 495.545, 611.689 495.396, 618.563 491.802 C 626.209 487.805, 634.234 477.867, 633.921 472.782 C 633.878 472.077, 633.361 472.850, 632.773 474.500 C 628.451 486.623, 614.655 495.321, 602.410 493.643 C 593.488 492.420, 584.703 486.085, 580.350 477.737 C 579.388 475.891, 578.470 471.257, 578.215 466.956 C 577.843 460.691, 578.149 458.525, 580.019 454.177 C 582.919 447.437, 590.218 440.764, 596.697 438.930 C 611.369 434.777, 625.028 440.538, 631.140 453.457 C 632.712 456.781, 633.999 458.855, 633.999 458.066 C 634.001 454.886, 629.568 447.797, 625.023 443.711 C 617.723 437.147, 607.711 434.857, 598.056 437.544 M 254.250 443.748 C 263.462 443.913, 278.538 443.913, 287.750 443.748 C 296.962 443.583, 289.425 443.448, 271 443.448 C 252.575 443.448, 245.037 443.583, 254.250 443.748 M 169.313 446.994 C 160.570 452.008, 155.993 459.827, 156.010 469.718 C 156.036 485.351, 169.900 497.492, 185.499 495.543 C 196.054 494.225, 205.989 485.415, 207.538 476 C 207.962 473.425, 207.590 473.949, 206.132 477.982 C 203.435 485.444, 197.157 491.317, 189.501 493.543 C 168.077 499.771, 149.510 477.565, 159.751 457.962 C 162.661 452.392, 169.433 446.808, 175.358 445.091 C 177.394 444.501, 177.796 444.152, 176.500 444.100 C 175.400 444.055, 172.166 445.357, 169.313 446.994 M 190.157 445.573 C 196.976 447.672, 203.716 454.216, 206.046 461 C 207.085 464.025, 207.940 465.600, 207.945 464.500 C 207.988 456.567, 195.042 443.766, 187.282 444.070 C 186.302 444.108, 187.595 444.784, 190.157 445.573 M 231.929 445.478 C 227.155 448.074, 221.180 459.417, 222.309 463.742 C 222.660 465.086, 222.795 464.975, 222.884 463.270 C 223.059 459.903, 226.038 452.802, 228.402 450.117 C 229.556 448.806, 231.850 446.895, 233.500 445.871 C 236.974 443.713, 235.741 443.405, 231.929 445.478 M 307.500 445.398 C 311.656 447.225, 316.756 454.762, 318.110 461.078 C 320.712 473.208, 316.914 487.071, 309.551 492.324 C 306.580 494.443, 305.594 494.508, 272.144 494.788 C 238.752 495.067, 237.663 495.015, 233.356 492.930 C 228.632 490.643, 224.898 484.944, 223.086 477.254 C 222.590 475.149, 222.157 474.433, 222.100 475.624 C 221.803 481.920, 228.094 492.306, 233.600 494.606 C 238.424 496.622, 302.538 496.638, 307.357 494.624 C 321.451 488.735, 324.617 460.985, 312.623 448.467 C 310.269 446.010, 307.478 444.018, 306.421 444.039 C 305.036 444.067, 305.338 444.447, 307.500 445.398 M 439.328 465.500 C 439.333 469.350, 439.513 470.802, 439.730 468.728 C 439.946 466.653, 439.943 463.503, 439.722 461.728 C 439.501 459.952, 439.324 461.650, 439.328 465.500 M 634.300 466 C 634.300 469.025, 634.487 470.262, 634.716 468.750 C 634.945 467.238, 634.945 464.762, 634.716 463.250 C 634.487 461.738, 634.300 462.975, 634.300 466 M 437.528 475.871 C 436.665 479.802, 432.045 486.119, 427.839 489.119 C 424.508 491.495, 424.419 491.501, 389 492 C 354.633 492.484, 353.366 492.572, 349.308 494.741 C 341.755 498.778, 336.903 507.343, 337.142 516.218 L 337.284 521.500 337.968 514.798 C 338.904 505.632, 342.736 499.388, 349.505 496 C 354.481 493.510, 354.635 493.498, 389.500 493 C 414.565 492.642, 425.110 492.151, 426.648 491.269 C 431.973 488.219, 440.651 475.318, 438.695 473.361 C 438.417 473.084, 437.892 474.213, 437.528 475.871" stroke="none" fill="#d7c3ec" fill-rule="evenodd"/><path d="M 432.333 88.057 C 416.480 90.123, 396.236 96.531, 383.421 103.541 C 369.016 111.420, 352.192 124.286, 345.922 132.218 C 336.824 143.727, 339.178 160.321, 351.137 168.985 C 353.392 170.618, 356.645 172.209, 358.368 172.521 C 360.091 172.834, 385.800 173.187, 415.500 173.306 L 469.500 173.523 473.670 176.224 C 481.925 181.569, 486 189.916, 486 201.477 C 486 211.015, 483.571 217.707, 478.139 223.137 C 475.271 226.004, 471.973 228.197, 469.500 228.882 C 466.724 229.650, 440.082 229.991, 382.410 229.994 L 299.319 230 293.280 233.018 C 286.249 236.531, 279.350 243.489, 275.334 251.117 C 272.698 256.123, 272.500 257.305, 272.500 268 C 272.500 278.566, 272.727 279.962, 275.295 285.192 C 279.336 293.420, 286.029 300.398, 293.315 303.978 L 299.500 307.017 339.574 307.258 L 379.647 307.500 383.831 310.269 C 392.813 316.214, 396.703 325.520, 395.708 338.681 C 394.765 351.140, 387.606 360.681, 377.426 363.042 C 375.267 363.543, 357.051 363.963, 336.946 363.976 L 300.393 364 295.243 366.566 C 287.967 370.192, 279.916 379.224, 276.919 387.125 C 273.462 396.235, 273.567 406.428, 277.196 414.218 C 280.909 422.187, 287.934 429.350, 295.872 433.259 L 302.453 436.500 362.977 437 C 430.268 437.556, 426.406 437.142, 432.854 444.486 C 437.219 449.457, 439.059 454.311, 439.706 462.550 C 440.452 472.073, 438.328 479.209, 432.917 485.357 C 430.650 487.932, 427.829 490.593, 426.648 491.269 C 425.110 492.151, 414.565 492.642, 389.500 493 C 354.635 493.498, 354.481 493.510, 349.505 496 C 342.473 499.520, 338.668 505.887, 338.222 514.881 C 337.750 524.383, 339.272 526.326, 354.023 535.055 C 390.587 556.691, 432.657 568.233, 475 568.245 C 531.808 568.260, 583.405 550.305, 627.290 515.250 C 667.765 482.918, 696.188 439.399, 709.556 389.287 C 714.228 371.773, 715.619 363.425, 716.983 344.735 C 720.109 301.883, 711.726 259.844, 692.011 219.500 C 681.908 198.828, 667.630 178.815, 650.005 160.626 C 610.827 120.193, 561.028 95.392, 505.038 88.426 C 492.541 86.871, 443.350 86.622, 432.333 88.057 M 141.700 168.559 C 134.708 170.789, 127.646 177.970, 125.598 184.932 C 123.611 191.686, 123.608 193.319, 125.575 199.941 C 129.393 212.797, 144.971 220.955, 157.302 216.556 C 166.561 213.254, 172.617 206.518, 175.031 196.838 C 176.465 191.087, 174.565 183.459, 170.199 177.436 C 164.330 169.340, 151.644 165.388, 141.700 168.559 M 201.450 168.407 C 197.605 170.082, 193.566 174.836, 191.836 179.725 C 191.063 181.910, 190.520 187.501, 190.547 193 C 190.603 204.148, 192.944 210.329, 198.805 214.802 L 202.341 217.500 237.470 217.786 L 272.598 218.072 276.025 215.762 C 290.790 205.812, 289.653 174.921, 274.282 168.371 C 269.699 166.418, 205.944 166.449, 201.450 168.407 M 539.205 173.894 C 532.187 176.318, 527.386 180.360, 523.605 187.025 C 520.785 191.997, 520.505 193.281, 520.554 201 C 520.617 210.826, 522.017 214.799, 527.589 220.967 C 533.625 227.648, 540.018 230.470, 549 230.420 C 557.953 230.370, 564.498 227.512, 570.257 221.137 C 575.784 215.020, 577.287 211.351, 577.798 202.734 C 578.224 195.552, 578.020 194.483, 575.084 188.520 C 568.332 174.803, 553.765 168.865, 539.205 173.894 M 654.297 306.996 C 651.985 307.482, 649.132 308.394, 647.958 309.022 C 643.661 311.322, 637.778 317.500, 635.185 322.437 C 632.933 326.724, 632.532 328.725, 632.567 335.500 C 632.602 342.187, 633.052 344.359, 635.313 348.733 C 638.321 354.556, 645.742 361.065, 651.736 363.137 C 658.113 365.343, 667.744 364.734, 673.547 361.759 C 684.097 356.351, 689.082 348.673, 689.795 336.734 C 690.224 329.554, 690.020 328.483, 687.095 322.540 C 681.016 310.193, 668.131 304.086, 654.297 306.996 M 461.602 307.724 C 451.400 309.263, 443.063 321.333, 443.022 334.624 C 442.986 346.369, 447.725 355.990, 455.922 360.808 L 460.500 363.500 525 363.500 C 597.791 363.500, 592.218 364.104, 599.890 355.387 C 611.642 342.037, 608.469 318.840, 593.682 310 L 589.500 307.500 527 307.394 C 492.625 307.335, 463.196 307.484, 461.602 307.724 M 121.500 310.893 C 107.935 314.384, 100.084 327.455, 103.030 341.645 C 104.054 346.579, 105.009 348.168, 109.860 353.013 C 117.642 360.784, 125.054 362.658, 135.612 359.523 C 141.968 357.635, 149.283 350.553, 151.453 344.185 C 154.303 335.820, 152.830 326.400, 147.601 319.543 C 142.691 313.106, 129.670 308.791, 121.500 310.893 M 178.389 311.878 C 171.757 315.978, 167.841 324.749, 167.841 335.500 C 167.841 343.292, 169.745 349.666, 173.571 354.682 C 178.393 361.004, 178.369 361, 216.200 360.996 C 255.286 360.992, 254.402 361.166, 259.976 352.377 C 267.386 340.693, 265.728 322.946, 256.379 313.882 L 252.891 310.500 217.196 310.227 C 183.449 309.969, 181.330 310.059, 178.389 311.878 M 598.056 437.544 C 585.061 441.159, 577.020 451.845, 577.020 465.500 C 577.020 477.290, 583.063 486.870, 593.828 492.141 C 600.808 495.559, 611.687 495.397, 618.623 491.772 C 633.036 484.240, 638.917 466.789, 631.916 452.327 C 626.117 440.348, 611.272 433.867, 598.056 437.544 M 175.358 445.091 C 169.433 446.808, 162.661 452.392, 159.751 457.962 C 151.517 473.724, 161.283 491.623, 179.727 494.572 C 190.512 496.297, 203.146 488.003, 206.389 477.068 C 208.393 470.311, 208.395 468.705, 206.402 461.932 C 202.735 449.463, 187.949 441.442, 175.358 445.091 M 233.500 445.871 C 226.102 450.465, 222.483 458.426, 222.531 470 C 222.557 476.258, 223.075 478.593, 225.659 484.102 C 228.319 489.771, 229.394 491.012, 233.272 492.890 C 237.686 495.026, 238.558 495.069, 272.144 494.788 C 305.594 494.508, 306.580 494.443, 309.551 492.324 C 316.925 487.064, 320.711 473.208, 318.101 461.036 C 316.685 454.434, 311.145 446.595, 306.833 445.092 C 304.810 444.386, 291.811 444.001, 270.101 444.004 C 239.066 444.007, 236.271 444.150, 233.500 445.871" stroke="none" fill="#fbfbfb" fill-rule="evenodd"/></svg>